G04 EAGLE Gerber RS-274X export*
G75*
%MOMM*%
%FSLAX34Y34*%
%LPD*%
%INSilkscreen Top*%
%IPPOS*%
%AMOC8*
5,1,8,0,0,1.08239X$1,22.5*%
G01*
G04 Define Apertures*
%ADD10C,0.203200*%
%ADD11C,0.254000*%
%ADD12C,0.152400*%
%ADD13C,0.127000*%
G36*
X129206Y299466D02*
X124590Y299466D01*
X124590Y311807D01*
X128672Y311807D01*
X129058Y311801D01*
X129433Y311782D01*
X129797Y311752D01*
X130150Y311709D01*
X130492Y311653D01*
X130822Y311586D01*
X131141Y311506D01*
X131449Y311414D01*
X131746Y311309D01*
X132032Y311193D01*
X132306Y311064D01*
X132570Y310922D01*
X132822Y310769D01*
X133063Y310603D01*
X133292Y310425D01*
X133511Y310235D01*
X133717Y310033D01*
X133910Y309821D01*
X134090Y309598D01*
X134256Y309366D01*
X134409Y309122D01*
X134549Y308869D01*
X134675Y308605D01*
X134789Y308331D01*
X134888Y308046D01*
X134975Y307751D01*
X135048Y307446D01*
X135108Y307130D01*
X135155Y306804D01*
X135188Y306467D01*
X135208Y306121D01*
X135214Y305763D01*
X135203Y305294D01*
X135168Y304839D01*
X135110Y304398D01*
X135028Y303973D01*
X134924Y303563D01*
X134796Y303168D01*
X134644Y302787D01*
X134470Y302422D01*
X134274Y302074D01*
X134059Y301748D01*
X133824Y301442D01*
X133570Y301157D01*
X133296Y300894D01*
X133003Y300651D01*
X132691Y300429D01*
X132359Y300228D01*
X132011Y300049D01*
X131650Y299895D01*
X131275Y299764D01*
X130888Y299656D01*
X130487Y299573D01*
X130073Y299514D01*
X129646Y299478D01*
X129206Y299466D01*
G37*
%LPC*%
G36*
X129013Y300806D02*
X129348Y300815D01*
X129672Y300843D01*
X129985Y300890D01*
X130289Y300955D01*
X130582Y301039D01*
X130865Y301141D01*
X131138Y301262D01*
X131400Y301402D01*
X131650Y301559D01*
X131885Y301732D01*
X132105Y301922D01*
X132310Y302129D01*
X132500Y302351D01*
X132675Y302591D01*
X132836Y302846D01*
X132981Y303118D01*
X133110Y303405D01*
X133222Y303704D01*
X133317Y304016D01*
X133395Y304340D01*
X133455Y304677D01*
X133498Y305027D01*
X133524Y305389D01*
X133533Y305763D01*
X133513Y306320D01*
X133454Y306843D01*
X133356Y307331D01*
X133219Y307786D01*
X133042Y308206D01*
X132826Y308592D01*
X132571Y308944D01*
X132276Y309262D01*
X131944Y309545D01*
X131577Y309789D01*
X131175Y309996D01*
X130738Y310166D01*
X130265Y310297D01*
X129758Y310391D01*
X129215Y310448D01*
X128637Y310467D01*
X126263Y310467D01*
X126263Y300806D01*
X129013Y300806D01*
G37*
%LPD*%
G36*
X122344Y299466D02*
X112622Y299466D01*
X112622Y311807D01*
X121984Y311807D01*
X121984Y310440D01*
X114294Y310440D01*
X114294Y306482D01*
X121459Y306482D01*
X121459Y305133D01*
X114294Y305133D01*
X114294Y300832D01*
X122344Y300832D01*
X122344Y299466D01*
G37*
G36*
X145157Y299466D02*
X137423Y299466D01*
X137423Y300806D01*
X140567Y300806D01*
X140567Y310300D01*
X137782Y308312D01*
X137782Y309801D01*
X140698Y311807D01*
X142152Y311807D01*
X142152Y300806D01*
X145157Y300806D01*
X145157Y299466D01*
G37*
G36*
X110562Y299466D02*
X102653Y299466D01*
X102653Y311807D01*
X104326Y311807D01*
X104326Y300832D01*
X110562Y300832D01*
X110562Y299466D01*
G37*
G36*
X169480Y222250D02*
X167807Y222250D01*
X167807Y234591D01*
X173614Y234591D01*
X174120Y234576D01*
X174597Y234532D01*
X175044Y234460D01*
X175461Y234358D01*
X175848Y234226D01*
X176206Y234066D01*
X176534Y233877D01*
X176833Y233658D01*
X177098Y233413D01*
X177329Y233146D01*
X177524Y232856D01*
X177683Y232542D01*
X177807Y232206D01*
X177896Y231847D01*
X177949Y231466D01*
X177967Y231061D01*
X177954Y230724D01*
X177917Y230401D01*
X177854Y230091D01*
X177766Y229795D01*
X177654Y229513D01*
X177516Y229245D01*
X177353Y228990D01*
X177165Y228749D01*
X176955Y228525D01*
X176727Y228324D01*
X176479Y228143D01*
X176368Y228077D01*
X176212Y227985D01*
X175926Y227848D01*
X175621Y227732D01*
X175297Y227639D01*
X174954Y227566D01*
X176445Y225303D01*
X178457Y222250D01*
X176530Y222250D01*
X173325Y227374D01*
X169480Y227374D01*
X169480Y222250D01*
G37*
%LPC*%
G36*
X173517Y228696D02*
X173839Y228706D01*
X174141Y228735D01*
X174425Y228783D01*
X174690Y228851D01*
X174936Y228937D01*
X175164Y229044D01*
X175373Y229169D01*
X175563Y229314D01*
X175732Y229476D01*
X175879Y229653D01*
X176003Y229846D01*
X176104Y230055D01*
X176184Y230279D01*
X176240Y230518D01*
X176274Y230773D01*
X176285Y231044D01*
X176274Y231305D01*
X176239Y231550D01*
X176182Y231780D01*
X176102Y231993D01*
X175999Y232190D01*
X175874Y232371D01*
X175725Y232537D01*
X175554Y232686D01*
X175361Y232818D01*
X175148Y232933D01*
X174915Y233030D01*
X174661Y233110D01*
X174388Y233171D01*
X174095Y233215D01*
X173781Y233242D01*
X173447Y233251D01*
X169480Y233251D01*
X169480Y228696D01*
X173517Y228696D01*
G37*
%LPD*%
G36*
X188373Y222250D02*
X180639Y222250D01*
X180639Y223590D01*
X183784Y223590D01*
X183784Y233084D01*
X180998Y231096D01*
X180998Y232585D01*
X183915Y234591D01*
X185369Y234591D01*
X185369Y223590D01*
X188373Y223590D01*
X188373Y222250D01*
G37*
D10*
X152400Y336550D02*
X152400Y298450D01*
D11*
X152874Y297834D01*
X153363Y297229D01*
X153867Y296637D01*
X154385Y296057D01*
X154917Y295490D01*
X155463Y294936D01*
X156022Y294396D01*
X156595Y293870D01*
X157180Y293357D01*
X157777Y292860D01*
X158386Y292377D01*
X159007Y291909D01*
X159640Y291456D01*
X160283Y291019D01*
X160937Y290598D01*
X161601Y290194D01*
X162274Y289805D01*
X162957Y289433D01*
X163649Y289078D01*
X164349Y288740D01*
X165057Y288419D01*
X165773Y288116D01*
X166497Y287830D01*
X167226Y287562D01*
X167963Y287312D01*
X168705Y287081D01*
X169453Y286867D01*
X170205Y286672D01*
X170963Y286495D01*
X171724Y286337D01*
X172489Y286197D01*
X173257Y286077D01*
X174028Y285975D01*
X174801Y285892D01*
X175576Y285828D01*
X176352Y285783D01*
X177129Y285757D01*
X177907Y285750D01*
X178684Y285762D01*
X179461Y285793D01*
X180237Y285844D01*
X181012Y285913D01*
X181784Y286001D01*
X182554Y286108D01*
X183322Y286234D01*
X184086Y286378D01*
X184846Y286542D01*
X185602Y286724D01*
X186353Y286924D01*
X187100Y287142D01*
X187840Y287379D01*
X188575Y287634D01*
X189303Y287907D01*
X190024Y288198D01*
X190738Y288506D01*
X191444Y288831D01*
X192142Y289174D01*
X192832Y289534D01*
X193512Y289910D01*
X194183Y290303D01*
X194844Y290713D01*
X195495Y291138D01*
X196135Y291579D01*
X196764Y292036D01*
X197382Y292508D01*
X197988Y292995D01*
X198582Y293497D01*
X199164Y294013D01*
X199733Y294543D01*
X200288Y295087D01*
X200831Y295645D01*
X201359Y296215D01*
X201873Y296798D01*
X202373Y297394D01*
X202858Y298002D01*
X203328Y298621D01*
X203782Y299252D01*
X204221Y299894D01*
X204645Y300546D01*
X205052Y301209D01*
X205443Y301881D01*
X205817Y302563D01*
X206174Y303253D01*
X206514Y303952D01*
X206838Y304660D01*
X207143Y305374D01*
X207432Y306097D01*
X207702Y306826D01*
X207954Y307561D01*
X208189Y308303D01*
X208405Y309050D01*
X208603Y309802D01*
X208782Y310558D01*
X208943Y311319D01*
X209085Y312083D01*
X209208Y312851D01*
X209312Y313622D01*
X209398Y314395D01*
X209464Y315169D01*
X209512Y315945D01*
X209540Y316722D01*
X209550Y317500D01*
X209540Y318278D01*
X209512Y319055D01*
X209464Y319831D01*
X209398Y320605D01*
X209312Y321378D01*
X209208Y322149D01*
X209085Y322917D01*
X208943Y323681D01*
X208782Y324442D01*
X208603Y325198D01*
X208405Y325950D01*
X208189Y326697D01*
X207954Y327439D01*
X207702Y328174D01*
X207432Y328903D01*
X207143Y329626D01*
X206838Y330340D01*
X206514Y331048D01*
X206174Y331747D01*
X205817Y332437D01*
X205443Y333119D01*
X205052Y333791D01*
X204645Y334454D01*
X204221Y335106D01*
X203782Y335748D01*
X203328Y336379D01*
X202858Y336998D01*
X202373Y337606D01*
X201873Y338202D01*
X201359Y338785D01*
X200831Y339355D01*
X200288Y339913D01*
X199733Y340457D01*
X199164Y340987D01*
X198582Y341503D01*
X197988Y342005D01*
X197382Y342492D01*
X196764Y342964D01*
X196135Y343421D01*
X195495Y343862D01*
X194844Y344287D01*
X194183Y344697D01*
X193512Y345090D01*
X192832Y345466D01*
X192142Y345826D01*
X191444Y346169D01*
X190738Y346494D01*
X190024Y346802D01*
X189303Y347093D01*
X188575Y347366D01*
X187840Y347621D01*
X187100Y347858D01*
X186353Y348076D01*
X185602Y348276D01*
X184846Y348458D01*
X184086Y348622D01*
X183322Y348766D01*
X182554Y348892D01*
X181784Y348999D01*
X181012Y349087D01*
X180237Y349156D01*
X179461Y349207D01*
X178684Y349238D01*
X177907Y349250D01*
X177129Y349243D01*
X176352Y349217D01*
X175576Y349172D01*
X174801Y349108D01*
X174028Y349025D01*
X173257Y348923D01*
X172489Y348803D01*
X171724Y348663D01*
X170963Y348505D01*
X170205Y348328D01*
X169453Y348133D01*
X168705Y347919D01*
X167963Y347688D01*
X167226Y347438D01*
X166497Y347170D01*
X165773Y346884D01*
X165057Y346581D01*
X164349Y346260D01*
X163649Y345922D01*
X162957Y345567D01*
X162274Y345195D01*
X161601Y344806D01*
X160937Y344402D01*
X160283Y343981D01*
X159640Y343544D01*
X159007Y343091D01*
X158386Y342623D01*
X157777Y342140D01*
X157180Y341643D01*
X156595Y341130D01*
X156022Y340604D01*
X155463Y340064D01*
X154917Y339510D01*
X154385Y338943D01*
X153867Y338363D01*
X153363Y337771D01*
X152874Y337166D01*
X152400Y336550D01*
D12*
X152400Y317500D02*
X152408Y318123D01*
X152431Y318746D01*
X152469Y319369D01*
X152522Y319990D01*
X152591Y320609D01*
X152675Y321227D01*
X152774Y321842D01*
X152888Y322455D01*
X153017Y323065D01*
X153161Y323672D01*
X153320Y324275D01*
X153494Y324873D01*
X153682Y325468D01*
X153885Y326057D01*
X154102Y326641D01*
X154333Y327220D01*
X154579Y327793D01*
X154839Y328360D01*
X155112Y328920D01*
X155399Y329473D01*
X155700Y330020D01*
X156014Y330558D01*
X156341Y331089D01*
X156681Y331611D01*
X157033Y332126D01*
X157399Y332631D01*
X157776Y333127D01*
X158166Y333614D01*
X158567Y334091D01*
X158980Y334558D01*
X159404Y335014D01*
X159839Y335461D01*
X160286Y335896D01*
X160742Y336320D01*
X161209Y336733D01*
X161686Y337134D01*
X162173Y337524D01*
X162669Y337901D01*
X163174Y338267D01*
X163689Y338619D01*
X164211Y338959D01*
X164742Y339286D01*
X165280Y339600D01*
X165827Y339901D01*
X166380Y340188D01*
X166940Y340461D01*
X167507Y340721D01*
X168080Y340967D01*
X168659Y341198D01*
X169243Y341415D01*
X169832Y341618D01*
X170427Y341806D01*
X171025Y341980D01*
X171628Y342139D01*
X172235Y342283D01*
X172845Y342412D01*
X173458Y342526D01*
X174073Y342625D01*
X174691Y342709D01*
X175310Y342778D01*
X175931Y342831D01*
X176554Y342869D01*
X177177Y342892D01*
X177800Y342900D01*
X178423Y342892D01*
X179046Y342869D01*
X179669Y342831D01*
X180290Y342778D01*
X180909Y342709D01*
X181527Y342625D01*
X182142Y342526D01*
X182755Y342412D01*
X183365Y342283D01*
X183972Y342139D01*
X184575Y341980D01*
X185173Y341806D01*
X185768Y341618D01*
X186357Y341415D01*
X186941Y341198D01*
X187520Y340967D01*
X188093Y340721D01*
X188660Y340461D01*
X189220Y340188D01*
X189773Y339901D01*
X190320Y339600D01*
X190858Y339286D01*
X191389Y338959D01*
X191911Y338619D01*
X192426Y338267D01*
X192931Y337901D01*
X193427Y337524D01*
X193914Y337134D01*
X194391Y336733D01*
X194858Y336320D01*
X195314Y335896D01*
X195761Y335461D01*
X196196Y335014D01*
X196620Y334558D01*
X197033Y334091D01*
X197434Y333614D01*
X197824Y333127D01*
X198201Y332631D01*
X198567Y332126D01*
X198919Y331611D01*
X199259Y331089D01*
X199586Y330558D01*
X199900Y330020D01*
X200201Y329473D01*
X200488Y328920D01*
X200761Y328360D01*
X201021Y327793D01*
X201267Y327220D01*
X201498Y326641D01*
X201715Y326057D01*
X201918Y325468D01*
X202106Y324873D01*
X202280Y324275D01*
X202439Y323672D01*
X202583Y323065D01*
X202712Y322455D01*
X202826Y321842D01*
X202925Y321227D01*
X203009Y320609D01*
X203078Y319990D01*
X203131Y319369D01*
X203169Y318746D01*
X203192Y318123D01*
X203200Y317500D01*
X203192Y316877D01*
X203169Y316254D01*
X203131Y315631D01*
X203078Y315010D01*
X203009Y314391D01*
X202925Y313773D01*
X202826Y313158D01*
X202712Y312545D01*
X202583Y311935D01*
X202439Y311328D01*
X202280Y310725D01*
X202106Y310127D01*
X201918Y309532D01*
X201715Y308943D01*
X201498Y308359D01*
X201267Y307780D01*
X201021Y307207D01*
X200761Y306640D01*
X200488Y306080D01*
X200201Y305527D01*
X199900Y304980D01*
X199586Y304442D01*
X199259Y303911D01*
X198919Y303389D01*
X198567Y302874D01*
X198201Y302369D01*
X197824Y301873D01*
X197434Y301386D01*
X197033Y300909D01*
X196620Y300442D01*
X196196Y299986D01*
X195761Y299539D01*
X195314Y299104D01*
X194858Y298680D01*
X194391Y298267D01*
X193914Y297866D01*
X193427Y297476D01*
X192931Y297099D01*
X192426Y296733D01*
X191911Y296381D01*
X191389Y296041D01*
X190858Y295714D01*
X190320Y295400D01*
X189773Y295099D01*
X189220Y294812D01*
X188660Y294539D01*
X188093Y294279D01*
X187520Y294033D01*
X186941Y293802D01*
X186357Y293585D01*
X185768Y293382D01*
X185173Y293194D01*
X184575Y293020D01*
X183972Y292861D01*
X183365Y292717D01*
X182755Y292588D01*
X182142Y292474D01*
X181527Y292375D01*
X180909Y292291D01*
X180290Y292222D01*
X179669Y292169D01*
X179046Y292131D01*
X178423Y292108D01*
X177800Y292100D01*
X177177Y292108D01*
X176554Y292131D01*
X175931Y292169D01*
X175310Y292222D01*
X174691Y292291D01*
X174073Y292375D01*
X173458Y292474D01*
X172845Y292588D01*
X172235Y292717D01*
X171628Y292861D01*
X171025Y293020D01*
X170427Y293194D01*
X169832Y293382D01*
X169243Y293585D01*
X168659Y293802D01*
X168080Y294033D01*
X167507Y294279D01*
X166940Y294539D01*
X166380Y294812D01*
X165827Y295099D01*
X165280Y295400D01*
X164742Y295714D01*
X164211Y296041D01*
X163689Y296381D01*
X163174Y296733D01*
X162669Y297099D01*
X162173Y297476D01*
X161686Y297866D01*
X161209Y298267D01*
X160742Y298680D01*
X160286Y299104D01*
X159839Y299539D01*
X159404Y299986D01*
X158980Y300442D01*
X158567Y300909D01*
X158166Y301386D01*
X157776Y301873D01*
X157399Y302369D01*
X157033Y302874D01*
X156681Y303389D01*
X156341Y303911D01*
X156014Y304442D01*
X155700Y304980D01*
X155399Y305527D01*
X155112Y306080D01*
X154839Y306640D01*
X154579Y307207D01*
X154333Y307780D01*
X154102Y308359D01*
X153885Y308943D01*
X153682Y309532D01*
X153494Y310127D01*
X153320Y310725D01*
X153161Y311328D01*
X153017Y311935D01*
X152888Y312545D01*
X152774Y313158D01*
X152675Y313773D01*
X152591Y314391D01*
X152522Y315010D01*
X152469Y315631D01*
X152431Y316254D01*
X152408Y316877D01*
X152400Y317500D01*
D13*
X220300Y266500D02*
X220300Y241500D01*
X220300Y266500D02*
X135300Y266500D01*
X135300Y241500D01*
X220300Y241500D01*
X220300Y254000D02*
X226910Y254000D01*
X135300Y254000D02*
X128690Y254000D01*
X77800Y114300D02*
X77830Y116754D01*
X77920Y119207D01*
X78071Y121656D01*
X78282Y124102D01*
X78552Y126541D01*
X78882Y128973D01*
X79272Y131396D01*
X79721Y133809D01*
X80230Y136210D01*
X80797Y138598D01*
X81422Y140971D01*
X82106Y143328D01*
X82847Y145668D01*
X83646Y147989D01*
X84501Y150290D01*
X85412Y152568D01*
X86379Y154824D01*
X87401Y157056D01*
X88478Y159261D01*
X89608Y161440D01*
X90791Y163590D01*
X92027Y165710D01*
X93315Y167800D01*
X94653Y169857D01*
X96042Y171881D01*
X97479Y173870D01*
X98965Y175823D01*
X100499Y177739D01*
X102079Y179617D01*
X103705Y181456D01*
X105375Y183254D01*
X107089Y185011D01*
X108846Y186725D01*
X110644Y188395D01*
X112483Y190021D01*
X114361Y191601D01*
X116277Y193135D01*
X118230Y194621D01*
X120219Y196058D01*
X122243Y197447D01*
X124300Y198785D01*
X126390Y200073D01*
X128510Y201309D01*
X130660Y202492D01*
X132839Y203622D01*
X135044Y204699D01*
X137276Y205721D01*
X139532Y206688D01*
X141810Y207599D01*
X144111Y208454D01*
X146432Y209253D01*
X148772Y209994D01*
X151129Y210678D01*
X153502Y211303D01*
X155890Y211870D01*
X158291Y212379D01*
X160704Y212828D01*
X163127Y213218D01*
X165559Y213548D01*
X167998Y213818D01*
X170444Y214029D01*
X172893Y214180D01*
X175346Y214270D01*
X177800Y214300D01*
X180254Y214270D01*
X182707Y214180D01*
X185156Y214029D01*
X187602Y213818D01*
X190041Y213548D01*
X192473Y213218D01*
X194896Y212828D01*
X197309Y212379D01*
X199710Y211870D01*
X202098Y211303D01*
X204471Y210678D01*
X206828Y209994D01*
X209168Y209253D01*
X211489Y208454D01*
X213790Y207599D01*
X216068Y206688D01*
X218324Y205721D01*
X220556Y204699D01*
X222761Y203622D01*
X224940Y202492D01*
X227090Y201309D01*
X229210Y200073D01*
X231300Y198785D01*
X233357Y197447D01*
X235381Y196058D01*
X237370Y194621D01*
X239323Y193135D01*
X241239Y191601D01*
X243117Y190021D01*
X244956Y188395D01*
X246754Y186725D01*
X248511Y185011D01*
X250225Y183254D01*
X251895Y181456D01*
X253521Y179617D01*
X255101Y177739D01*
X256635Y175823D01*
X258121Y173870D01*
X259558Y171881D01*
X260947Y169857D01*
X262285Y167800D01*
X263573Y165710D01*
X264809Y163590D01*
X265992Y161440D01*
X267122Y159261D01*
X268199Y157056D01*
X269221Y154824D01*
X270188Y152568D01*
X271099Y150290D01*
X271954Y147989D01*
X272753Y145668D01*
X273494Y143328D01*
X274178Y140971D01*
X274803Y138598D01*
X275370Y136210D01*
X275879Y133809D01*
X276328Y131396D01*
X276718Y128973D01*
X277048Y126541D01*
X277318Y124102D01*
X277529Y121656D01*
X277680Y119207D01*
X277770Y116754D01*
X277800Y114300D01*
X277770Y111846D01*
X277680Y109393D01*
X277529Y106944D01*
X277318Y104498D01*
X277048Y102059D01*
X276718Y99627D01*
X276328Y97204D01*
X275879Y94791D01*
X275370Y92390D01*
X274803Y90002D01*
X274178Y87629D01*
X273494Y85272D01*
X272753Y82932D01*
X271954Y80611D01*
X271099Y78310D01*
X270188Y76032D01*
X269221Y73776D01*
X268199Y71544D01*
X267122Y69339D01*
X265992Y67160D01*
X264809Y65010D01*
X263573Y62890D01*
X262285Y60800D01*
X260947Y58743D01*
X259558Y56719D01*
X258121Y54730D01*
X256635Y52777D01*
X255101Y50861D01*
X253521Y48983D01*
X251895Y47144D01*
X250225Y45346D01*
X248511Y43589D01*
X246754Y41875D01*
X244956Y40205D01*
X243117Y38579D01*
X241239Y36999D01*
X239323Y35465D01*
X237370Y33979D01*
X235381Y32542D01*
X233357Y31153D01*
X231300Y29815D01*
X229210Y28527D01*
X227090Y27291D01*
X224940Y26108D01*
X222761Y24978D01*
X220556Y23901D01*
X218324Y22879D01*
X216068Y21912D01*
X213790Y21001D01*
X211489Y20146D01*
X209168Y19347D01*
X206828Y18606D01*
X204471Y17922D01*
X202098Y17297D01*
X199710Y16730D01*
X197309Y16221D01*
X194896Y15772D01*
X192473Y15382D01*
X190041Y15052D01*
X187602Y14782D01*
X185156Y14571D01*
X182707Y14420D01*
X180254Y14330D01*
X177800Y14300D01*
X175346Y14330D01*
X172893Y14420D01*
X170444Y14571D01*
X167998Y14782D01*
X165559Y15052D01*
X163127Y15382D01*
X160704Y15772D01*
X158291Y16221D01*
X155890Y16730D01*
X153502Y17297D01*
X151129Y17922D01*
X148772Y18606D01*
X146432Y19347D01*
X144111Y20146D01*
X141810Y21001D01*
X139532Y21912D01*
X137276Y22879D01*
X135044Y23901D01*
X132839Y24978D01*
X130660Y26108D01*
X128510Y27291D01*
X126390Y28527D01*
X124300Y29815D01*
X122243Y31153D01*
X120219Y32542D01*
X118230Y33979D01*
X116277Y35465D01*
X114361Y36999D01*
X112483Y38579D01*
X110644Y40205D01*
X108846Y41875D01*
X107089Y43589D01*
X105375Y45346D01*
X103705Y47144D01*
X102079Y48983D01*
X100499Y50861D01*
X98965Y52777D01*
X97479Y54730D01*
X96042Y56719D01*
X94653Y58743D01*
X93315Y60800D01*
X92027Y62890D01*
X90791Y65010D01*
X89608Y67160D01*
X88478Y69339D01*
X87401Y71544D01*
X86379Y73776D01*
X85412Y76032D01*
X84501Y78310D01*
X83646Y80611D01*
X82847Y82932D01*
X82106Y85272D01*
X81422Y87629D01*
X80797Y90002D01*
X80230Y92390D01*
X79721Y94791D01*
X79272Y97204D01*
X78882Y99627D01*
X78552Y102059D01*
X78282Y104498D01*
X78071Y106944D01*
X77920Y109393D01*
X77830Y111846D01*
X77800Y114300D01*
X77800Y164300D02*
X77800Y34300D01*
X77800Y164300D02*
X127800Y214300D01*
X227800Y214300D01*
X277800Y164300D01*
X277800Y44300D01*
X127800Y44300D02*
X127915Y43685D01*
X128015Y43067D01*
X128100Y42447D01*
X128170Y41825D01*
X128224Y41202D01*
X128263Y40578D01*
X128287Y39952D01*
X128295Y39327D01*
X128288Y38701D01*
X128266Y38076D01*
X128228Y37451D01*
X128175Y36828D01*
X128107Y36206D01*
X128023Y35585D01*
X127924Y34968D01*
X127810Y34352D01*
X127681Y33740D01*
X127537Y33131D01*
X127379Y32526D01*
X127205Y31925D01*
X127017Y31328D01*
X126814Y30736D01*
X126596Y30149D01*
X126365Y29568D01*
X126119Y28993D01*
X125859Y28424D01*
X125585Y27861D01*
X125297Y27305D01*
X124996Y26757D01*
X124681Y26216D01*
X124354Y25683D01*
X124013Y25158D01*
X123660Y24642D01*
X123294Y24134D01*
X122915Y23636D01*
X122525Y23147D01*
X122122Y22668D01*
X121708Y22198D01*
X121283Y21739D01*
X120847Y21291D01*
X120399Y20854D01*
X119941Y20427D01*
X119473Y20012D01*
X118994Y19609D01*
X118506Y19218D01*
X118009Y18838D01*
X117502Y18471D01*
X116986Y18117D01*
X116462Y17775D01*
X115930Y17446D01*
X115390Y17130D01*
X114842Y16828D01*
X114287Y16539D01*
X113725Y16264D01*
X113156Y16003D01*
X112581Y15756D01*
X112000Y15523D01*
X111414Y15304D01*
X110823Y15100D01*
X110226Y14911D01*
X109626Y14736D01*
X109021Y14576D01*
X108412Y14430D01*
X107800Y14300D01*
X107185Y14185D01*
X106567Y14085D01*
X105947Y14000D01*
X105325Y13930D01*
X104702Y13876D01*
X104078Y13837D01*
X103452Y13813D01*
X102827Y13805D01*
X102201Y13812D01*
X101576Y13834D01*
X100951Y13872D01*
X100328Y13925D01*
X99706Y13993D01*
X99085Y14077D01*
X98468Y14176D01*
X97852Y14290D01*
X97240Y14419D01*
X96631Y14563D01*
X96026Y14721D01*
X95425Y14895D01*
X94828Y15083D01*
X94236Y15286D01*
X93649Y15504D01*
X93068Y15735D01*
X92493Y15981D01*
X91924Y16241D01*
X91361Y16515D01*
X90805Y16803D01*
X90257Y17104D01*
X89716Y17419D01*
X89183Y17746D01*
X88658Y18087D01*
X88142Y18440D01*
X87634Y18806D01*
X87136Y19185D01*
X86647Y19575D01*
X86168Y19978D01*
X85698Y20392D01*
X85239Y20817D01*
X84791Y21253D01*
X84354Y21701D01*
X83927Y22159D01*
X83512Y22627D01*
X83109Y23106D01*
X82718Y23594D01*
X82338Y24091D01*
X81971Y24598D01*
X81617Y25114D01*
X81275Y25638D01*
X80946Y26170D01*
X80630Y26710D01*
X80328Y27258D01*
X80039Y27813D01*
X79764Y28375D01*
X79503Y28944D01*
X79256Y29519D01*
X79023Y30100D01*
X78804Y30686D01*
X78600Y31277D01*
X78411Y31874D01*
X78236Y32474D01*
X78076Y33079D01*
X77930Y33688D01*
X77800Y34300D01*
X227800Y34300D02*
X227930Y33688D01*
X228076Y33079D01*
X228236Y32474D01*
X228411Y31874D01*
X228600Y31277D01*
X228804Y30686D01*
X229023Y30100D01*
X229256Y29519D01*
X229503Y28944D01*
X229764Y28375D01*
X230039Y27813D01*
X230328Y27258D01*
X230630Y26710D01*
X230946Y26170D01*
X231275Y25638D01*
X231617Y25114D01*
X231971Y24598D01*
X232338Y24091D01*
X232718Y23594D01*
X233109Y23106D01*
X233512Y22627D01*
X233927Y22159D01*
X234354Y21701D01*
X234791Y21253D01*
X235239Y20817D01*
X235698Y20392D01*
X236168Y19978D01*
X236647Y19575D01*
X237136Y19185D01*
X237634Y18806D01*
X238142Y18440D01*
X238658Y18087D01*
X239183Y17746D01*
X239716Y17419D01*
X240257Y17104D01*
X240805Y16803D01*
X241361Y16515D01*
X241924Y16241D01*
X242493Y15981D01*
X243068Y15735D01*
X243649Y15504D01*
X244236Y15286D01*
X244828Y15083D01*
X245425Y14895D01*
X246026Y14721D01*
X246631Y14563D01*
X247240Y14419D01*
X247852Y14290D01*
X248468Y14176D01*
X249085Y14077D01*
X249706Y13993D01*
X250328Y13925D01*
X250951Y13872D01*
X251576Y13834D01*
X252201Y13812D01*
X252827Y13805D01*
X253452Y13813D01*
X254078Y13837D01*
X254702Y13876D01*
X255325Y13930D01*
X255947Y14000D01*
X256567Y14085D01*
X257185Y14185D01*
X257800Y14300D01*
X258412Y14430D01*
X259021Y14576D01*
X259626Y14736D01*
X260226Y14911D01*
X260823Y15100D01*
X261414Y15304D01*
X262000Y15523D01*
X262581Y15756D01*
X263156Y16003D01*
X263725Y16264D01*
X264287Y16539D01*
X264842Y16828D01*
X265390Y17130D01*
X265930Y17446D01*
X266462Y17775D01*
X266986Y18117D01*
X267502Y18471D01*
X268009Y18838D01*
X268506Y19218D01*
X268994Y19609D01*
X269473Y20012D01*
X269941Y20427D01*
X270399Y20854D01*
X270847Y21291D01*
X271283Y21739D01*
X271708Y22198D01*
X272122Y22668D01*
X272525Y23147D01*
X272915Y23636D01*
X273294Y24134D01*
X273660Y24642D01*
X274013Y25158D01*
X274354Y25683D01*
X274681Y26216D01*
X274996Y26757D01*
X275297Y27305D01*
X275585Y27861D01*
X275859Y28424D01*
X276119Y28993D01*
X276365Y29568D01*
X276596Y30149D01*
X276814Y30736D01*
X277017Y31328D01*
X277205Y31925D01*
X277379Y32526D01*
X277537Y33131D01*
X277681Y33740D01*
X277810Y34352D01*
X277924Y34968D01*
X278023Y35585D01*
X278107Y36206D01*
X278175Y36828D01*
X278228Y37451D01*
X278266Y38076D01*
X278288Y38701D01*
X278295Y39327D01*
X278287Y39952D01*
X278263Y40578D01*
X278224Y41202D01*
X278170Y41825D01*
X278100Y42447D01*
X278015Y43067D01*
X277915Y43685D01*
X277800Y44300D01*
X227800Y34300D02*
X227907Y35519D01*
X227984Y36740D01*
X228031Y37963D01*
X228049Y39187D01*
X228037Y40410D01*
X227995Y41633D01*
X227923Y42855D01*
X227822Y44074D01*
X227691Y45291D01*
X227530Y46504D01*
X227340Y47713D01*
X227120Y48917D01*
X226871Y50115D01*
X226593Y51307D01*
X226287Y52491D01*
X225951Y53668D01*
X225587Y54836D01*
X225194Y55995D01*
X224774Y57145D01*
X224325Y58283D01*
X223849Y59410D01*
X223346Y60526D01*
X222815Y61629D01*
X222258Y62718D01*
X221675Y63794D01*
X221065Y64855D01*
X220430Y65901D01*
X219770Y66931D01*
X219085Y67945D01*
X218375Y68942D01*
X217641Y69921D01*
X216884Y70882D01*
X216103Y71825D01*
X215300Y72748D01*
X214474Y73651D01*
X213627Y74534D01*
X212758Y75396D01*
X211869Y76236D01*
X210959Y77055D01*
X210030Y77851D01*
X209082Y78625D01*
X208115Y79375D01*
X207130Y80101D01*
X206128Y80803D01*
X205109Y81481D01*
X204073Y82133D01*
X203023Y82760D01*
X201957Y83361D01*
X200877Y83937D01*
X199783Y84485D01*
X198676Y85007D01*
X197557Y85502D01*
X196426Y85969D01*
X195284Y86409D01*
X194132Y86821D01*
X192970Y87205D01*
X191799Y87560D01*
X190619Y87886D01*
X189432Y88184D01*
X188238Y88453D01*
X187038Y88692D01*
X185833Y88903D01*
X184623Y89084D01*
X183408Y89235D01*
X182191Y89357D01*
X180971Y89449D01*
X179748Y89511D01*
X178525Y89544D01*
X177301Y89547D01*
X176078Y89519D01*
X174856Y89463D01*
X173635Y89376D01*
X172417Y89260D01*
X171202Y89114D01*
X169991Y88938D01*
X168784Y88734D01*
X167583Y88499D01*
X166388Y88236D01*
X165200Y87944D01*
X164019Y87622D01*
X162847Y87272D01*
X161683Y86894D01*
X160529Y86488D01*
X159385Y86053D01*
X158252Y85591D01*
X157130Y85101D01*
X156021Y84584D01*
X154925Y84040D01*
X153842Y83470D01*
X152774Y82873D01*
X151720Y82251D01*
X150682Y81603D01*
X149660Y80930D01*
X148654Y80233D01*
X147666Y79511D01*
X146696Y78765D01*
X145744Y77996D01*
X144811Y77204D01*
X143898Y76390D01*
X143005Y75553D01*
X142133Y74695D01*
X141281Y73816D01*
X140452Y72916D01*
X139644Y71997D01*
X138859Y71058D01*
X138097Y70100D01*
X137359Y69125D01*
X136645Y68131D01*
X135955Y67120D01*
X135290Y66093D01*
X134650Y65050D01*
X134036Y63992D01*
X133448Y62918D01*
X132886Y61831D01*
X132350Y60731D01*
X131842Y59618D01*
X131361Y58493D01*
X130907Y57356D01*
X130481Y56209D01*
X130084Y55052D01*
X129714Y53885D01*
X129373Y52710D01*
X129061Y51527D01*
X128778Y50336D01*
X128524Y49139D01*
X128299Y47936D01*
X128103Y46728D01*
X127937Y45516D01*
X127800Y44300D01*
M02*
